<?xml version="1.0" standalone="no"?><!DOCTYPE svg PUBLIC "-//W3C//DTD SVG 1.1//EN" "http://www.w3.org/Graphics/SVG/1.1/DTD/svg11.dtd"><svg t="1540021303595" class="icon" style="" viewBox="0 0 1024 1024" version="1.1" xmlns="http://www.w3.org/2000/svg" p-id="891" xmlns:xlink="http://www.w3.org/1999/xlink" width="200" height="200"><defs><style type="text/css"></style></defs><path d="M594.82 498.22C695.54 463.79 768 368.391 768 256 768 114.62 653.385 0 512 0S256 114.62 256 256c0 112.391 72.458 207.79 173.183 242.22C185.8 537.82 0 748.96 0 1003.52c0 6.86 0.175 13.681 0.442 20.48h51.235c-0.298-6.79-0.478-13.62-0.478-20.48 0-254.489 206.307-460.8 460.8-460.8 254.495 0 460.8 206.311 460.8 460.8 0 6.86-0.18 13.69-0.475 20.48h51.229c0.271-6.8 0.445-13.62 0.445-20.48 0.002-254.56-185.798-465.7-429.178-505.3zM307.2 256c0-113.109 91.69-204.8 204.8-204.8 113.11 0 204.8 91.69 204.8 204.8 0 113.11-91.689 204.8-204.8 204.8-113.11 0-204.8-91.69-204.8-204.8z" fill="#707070" p-id="892"></path></svg>